<?xml version="1.0" standalone="no"?>
<!DOCTYPE svg PUBLIC "-//W3C//DTD SVG 20010904//EN"
 "http://www.w3.org/TR/2001/REC-SVG-20010904/DTD/svg10.dtd">
<svg version="1.0" xmlns="http://www.w3.org/2000/svg"
 width="640.000000pt" height="640.000000pt" viewBox="0 0 640.000000 640.000000"
 preserveAspectRatio="xMidYMid meet">
<metadata>
Created by potrace 1.11, written by Peter Selinger 2001-2013
</metadata>
<g transform="translate(0.000000,640.000000) scale(0.100000,-0.100000)"
fill="#000000" stroke="none">
<path d="M3082 6383 c-5 -10 -12 -38 -15 -62 -3 -24 -9 -47 -14 -50 -13 -9
-47 -64 -48 -76 0 -5 8 -26 17 -45 23 -45 23 -87 -2 -127 -25 -41 -52 -55 -93
-48 -25 5 -39 1 -60 -15 -15 -12 -27 -28 -27 -36 0 -8 -3 -14 -7 -14 -5 0 -16
-7 -27 -15 -25 -19 -31 -75 -12 -120 9 -21 16 -48 16 -61 0 -12 9 -29 20 -37
21 -14 21 -14 -2 -29 -35 -22 -58 -29 -113 -34 -52 -5 -180 -43 -172 -51 5 -5
50 -11 86 -12 18 -1 22 -5 16 -18 -4 -10 -7 -28 -6 -41 0 -13 -8 -33 -20 -45
-11 -12 -27 -36 -34 -54 -12 -27 -20 -33 -62 -39 -65 -10 -182 -12 -214 -3
-48 13 -51 -5 -6 -47 23 -22 54 -48 68 -57 40 -24 151 -58 198 -60 43 -1 54
-13 24 -24 -10 -4 -20 -10 -23 -14 -15 -21 -280 -138 -280 -123 0 4 -7 1 -15
-6 -8 -7 -15 -10 -15 -6 0 10 -75 -39 -175 -114 -143 -107 -233 -148 -317
-146 -47 1 -39 -9 23 -29 93 -31 160 -26 284 20 27 11 -68 -77 -132 -122 -29
-20 -53 -40 -53 -44 0 -30 76 -27 141 6 28 14 52 25 54 25 2 0 2 -28 0 -63 -2
-34 -1 -68 4 -75 21 -34 109 -16 141 27 11 17 28 28 38 26 9 -1 30 4 47 13 16
8 51 14 77 13 35 -1 62 6 100 26 29 15 56 28 60 28 9 0 66 -79 69 -96 11 -52
-92 -178 -212 -261 -133 -91 -334 -153 -481 -149 -27 1 -48 -1 -48 -4 0 -2 17
-13 38 -23 38 -19 71 -24 154 -25 41 0 45 -2 32 -15 -55 -54 -124 -84 -221
-96 -27 -4 -172 17 -278 39 -44 9 -106 18 -138 20 -32 1 -60 5 -63 8 -3 2 -21
1 -40 -3 -18 -4 -34 -6 -34 -3 0 3 -6 0 -13 -6 -8 -6 -18 -7 -22 -3 -5 4 -5 1
-1 -5 4 -7 18 -13 31 -13 55 0 178 -70 173 -99 -1 -9 1 -21 5 -27 4 -8 -18
-14 -73 -18 -44 -4 -80 -11 -80 -16 0 -5 8 -8 18 -8 31 2 106 -23 144 -47 20
-13 49 -27 64 -31 15 -4 48 -20 74 -36 33 -20 62 -29 105 -32 56 -4 151 -33
141 -43 -2 -3 -49 -6 -103 -7 -84 -2 -106 -6 -155 -30 -32 -15 -75 -42 -97
-60 l-40 -33 72 0 c52 0 95 -7 152 -26 44 -15 96 -29 115 -31 19 -2 42 -7 50
-10 8 -3 44 -8 80 -11 36 -3 81 -8 100 -10 21 -2 49 4 71 15 l37 18 10 -23
c15 -33 56 -40 95 -17 18 11 38 17 45 15 17 -6 63 16 80 39 45 60 64 61 86 7
17 -42 17 -42 -11 -73 -15 -17 -31 -33 -34 -36 -3 -3 -14 -26 -24 -52 -19 -51
-32 -66 -61 -73 -11 -2 -68 -15 -129 -29 -126 -28 -151 -33 -255 -43 -141 -14
-469 -6 -534 14 -32 9 -10 -12 36 -34 98 -47 174 -73 218 -73 31 0 20 -10 -16
-15 -75 -12 -95 -15 -174 -22 -156 -13 -283 -7 -330 17 -39 20 -140 39 -140
27 0 -4 13 -20 29 -36 20 -20 28 -37 24 -50 -3 -12 2 -32 11 -46 17 -26 17
-26 -11 -19 -15 4 -45 13 -66 20 l-38 14 23 -29 c43 -53 222 -147 288 -151 22
-1 19 -4 -18 -22 -24 -11 -52 -21 -63 -24 -10 -2 -29 -6 -41 -9 -30 -7 -104
-16 -150 -18 -20 -2 -40 -5 -43 -9 -8 -8 224 -122 300 -147 69 -23 139 -41
175 -47 14 -2 48 -7 75 -11 28 -4 105 -8 173 -8 l123 0 -37 -33 c-54 -48 -188
-109 -259 -118 -33 -4 -63 -7 -67 -6 -5 1 -8 -2 -8 -6 0 -16 167 -45 265 -46
l99 0 -39 -18 c-22 -9 -46 -18 -52 -18 -7 0 -13 -5 -13 -11 0 -26 257 20 343
61 27 14 37 15 37 5 0 -17 -74 -79 -122 -102 -21 -10 -38 -22 -38 -27 0 -15
117 2 192 28 40 14 66 20 57 13 -265 -197 -287 -205 -518 -201 -86 2 -167 5
-181 9 -14 3 -41 8 -60 11 -19 3 -62 12 -95 20 -33 8 -68 17 -78 19 -26 6
-135 45 -186 67 -24 10 -45 17 -47 15 -6 -6 107 -110 151 -139 47 -31 140 -73
185 -83 77 -17 -23 -29 -245 -29 -165 0 -226 6 -391 38 -52 10 -161 38 -179
46 -20 8 -85 30 -91 30 -4 0 80 -80 116 -110 14 -12 37 -29 52 -38 16 -9 28
-20 28 -24 0 -4 5 -8 11 -8 5 0 26 -11 45 -24 l34 -23 -42 -16 c-65 -23 -90
-31 -118 -33 -43 -3 -46 -4 -27 -15 10 -6 40 -11 67 -12 33 -1 49 -6 46 -13
-3 -7 -28 -49 -56 -94 l-52 -83 58 8 c32 4 67 9 79 11 11 2 34 7 50 10 103 18
347 94 369 115 6 5 16 9 24 9 11 0 11 -3 -1 -20 -82 -117 -279 -251 -492 -334
-38 -16 -77 -31 -85 -36 -9 -4 -30 -11 -48 -15 -42 -9 -33 -22 21 -30 23 -4
56 -9 72 -12 48 -9 247 -10 280 -1 l30 8 -25 -19 c-13 -11 -51 -33 -85 -49
-33 -17 -69 -38 -80 -46 -19 -15 -18 -15 20 -10 22 2 51 7 65 10 14 2 39 7 55
10 109 19 366 120 419 163 7 6 15 9 18 6 3 -3 11 1 18 10 7 8 15 15 19 15 4 0
73 38 155 84 146 84 280 145 292 133 12 -11 -78 -132 -149 -200 -74 -71 -180
-141 -259 -172 -53 -20 -55 -23 -33 -64 l14 -29 -57 -25 c-31 -13 -64 -27 -72
-30 -8 -4 19 -6 60 -5 111 2 195 27 472 139 26 10 49 19 51 19 15 0 -122 -142
-191 -197 -26 -21 -52 -42 -59 -48 -6 -5 -28 -21 -48 -35 -19 -14 -47 -35 -62
-47 l-27 -22 30 0 c16 0 40 -2 54 -5 14 -3 55 -9 93 -12 37 -4 67 -10 67 -14
0 -10 -176 -66 -266 -85 -92 -19 -197 -30 -254 -26 -140 9 -262 2 -257 -13 7
-20 66 -47 109 -51 61 -5 92 -19 113 -52 10 -15 24 -34 31 -41 29 -29 126 -57
231 -68 69 -6 82 -14 27 -15 -21 0 -46 -2 -54 -4 -8 -1 -31 -5 -50 -9 -65 -11
-95 -17 -98 -21 -2 -1 21 -11 50 -21 68 -22 177 -18 323 13 11 2 31 6 45 9
106 22 322 98 409 145 30 16 57 27 59 24 10 -9 -85 -92 -145 -127 -59 -35
-108 -55 -157 -64 -14 -2 -38 -9 -53 -16 -16 -6 -33 -12 -40 -14 -16 -3 -136
-64 -147 -74 -8 -8 37 -7 229 5 82 5 106 8 185 26 25 6 56 13 70 15 42 8 212
65 269 90 29 14 55 23 57 21 4 -4 -27 -35 -81 -82 -22 -20 -24 -23 -7 -15 12
6 22 7 22 3 0 -4 5 -2 12 5 7 7 19 12 27 12 9 1 34 9 56 20 22 11 44 19 49 20
4 0 42 16 83 35 84 39 106 44 77 16 -10 -10 -32 -35 -49 -56 -16 -20 -45 -53
-64 -71 -44 -44 -35 -52 20 -17 24 15 53 34 64 40 17 10 137 70 210 104 26 12
136 49 145 49 4 0 9 -46 10 -103 6 -273 6 -260 -12 -263 -10 -1 -71 -5 -135
-8 -757 -39 -859 -48 -883 -72 -12 -12 -13 -16 -1 -23 13 -8 936 -6 1396 3
516 10 969 23 1125 32 63 3 125 7 138 7 22 1 30 21 12 32 -29 18 -228 26 -912
38 -64 1 -119 4 -121 7 -3 3 -7 85 -9 183 -2 129 0 177 9 177 49 0 298 -104
431 -180 29 -16 55 -30 58 -30 2 0 -24 29 -58 63 -105 106 -129 138 -98 130
11 -3 23 -9 26 -14 3 -5 14 -9 25 -9 10 0 19 -5 19 -12 0 -6 3 -8 7 -5 3 4 11
3 17 -2 11 -9 199 -73 226 -77 8 -2 -3 12 -25 29 -98 79 -98 80 -20 51 107
-40 241 -79 310 -90 51 -8 71 -11 120 -20 40 -7 345 -14 345 -8 0 14 -154 75
-250 99 -36 9 -84 25 -107 36 -24 10 -45 19 -48 19 -19 0 -161 117 -152 126 2
2 28 -8 57 -22 48 -23 238 -91 279 -99 9 -2 48 -10 86 -18 213 -47 320 -53
408 -25 80 26 71 34 -45 43 -107 9 -140 13 -144 18 -3 2 15 4 39 4 35 0 80 6
127 18 69 16 147 59 155 86 10 32 68 68 116 73 56 6 91 21 107 47 14 23 12 23
-123 18 -241 -9 -324 -3 -505 36 -8 2 -49 15 -90 28 -49 16 -66 26 -50 27 28
2 37 3 134 24 38 8 77 13 88 11 10 -2 18 -2 18 0 0 6 -90 65 -100 65 -4 0 -10
4 -12 8 -1 5 -27 25 -57 45 -63 42 -207 170 -221 197 -9 17 -4 17 62 -6 40
-14 82 -28 93 -33 110 -47 287 -88 365 -85 74 3 77 0 -53 53 -25 10 -26 13
-15 33 7 13 16 25 20 28 14 11 -9 26 -77 53 -97 37 -187 98 -272 183 -67 67
-123 142 -123 163 0 15 247 -85 270 -109 3 -3 88 -47 190 -97 162 -80 268
-126 320 -138 8 -1 35 -8 60 -15 25 -7 54 -14 65 -15 11 -2 32 -5 46 -8 15 -3
53 -8 85 -12 l59 -6 -40 23 c-22 13 -68 37 -102 53 -69 33 -79 46 -30 38 86
-15 296 5 377 35 24 9 23 10 -20 23 -25 7 -47 13 -50 13 -3 1 -9 4 -15 7 -5 4
-23 9 -40 13 -66 16 -290 126 -367 180 -70 51 -148 119 -148 131 0 4 -8 14
-17 21 -27 20 -3 17 73 -11 75 -28 232 -69 304 -80 25 -4 54 -9 65 -11 11 -2
49 -7 84 -10 l64 -7 -26 35 c-15 19 -27 40 -27 46 0 7 -3 12 -7 12 -7 0 -63
81 -63 91 0 2 23 5 51 6 57 1 104 29 52 30 -42 1 -126 20 -156 35 -15 8 -10
14 35 44 29 20 55 40 56 45 2 5 8 9 13 9 10 0 151 131 146 136 -2 2 -41 -9
-88 -25 -78 -27 -169 -53 -229 -65 -167 -32 -217 -38 -365 -40 -165 -2 -247 3
-239 16 3 5 8 7 11 4 8 -7 144 54 190 85 44 31 153 137 153 150 0 4 -23 -4
-51 -18 -129 -62 -325 -119 -479 -139 -92 -12 -272 -11 -325 1 -27 6 -64 19
-81 28 -34 17 -156 97 -164 106 -3 4 -22 15 -42 26 -21 10 -36 20 -34 22 1 2
31 -6 65 -17 34 -11 97 -22 139 -25 l77 -6 -57 32 c-31 17 -78 51 -105 75
l-48 44 35 -12 c19 -6 41 -15 48 -21 6 -5 12 -7 12 -4 0 3 15 1 33 -4 34 -11
53 -16 90 -24 12 -3 65 -8 117 -10 l95 -5 -40 19 c-22 11 -45 20 -52 20 -6 1
-14 5 -17 10 -3 5 18 8 46 7 88 -3 288 34 288 54 0 3 -18 7 -39 8 -95 6 -243
66 -306 125 l-24 22 112 1 c62 1 132 4 157 8 25 5 54 9 65 11 46 8 181 47 191
56 6 5 13 7 16 4 10 -10 306 149 308 165 0 3 -37 5 -83 6 -78 1 -97 3 -177 20
-42 9 -84 30 -73 37 4 2 22 7 38 11 68 17 187 89 251 153 28 28 25 28 -50 3
-73 -25 -71 -25 -47 2 19 19 23 49 9 63 -3 3 7 19 23 35 16 16 29 33 29 38 0
16 -70 2 -124 -24 -59 -29 -105 -36 -216 -36 -124 1 -327 16 -337 25 -2 3 15
9 39 13 51 9 47 8 78 21 14 6 42 16 63 24 20 7 37 17 37 21 0 4 6 8 13 8 6 0
23 10 37 21 21 17 22 19 5 15 -20 -6 -54 -10 -160 -24 -123 -15 -477 -7 -569
13 -18 4 -58 11 -106 19 -8 1 -39 8 -68 15 -51 13 -54 16 -83 74 -17 33 -44
74 -60 90 -34 34 -33 26 -14 71 20 47 41 46 88 -4 31 -33 44 -40 75 -40 21 0
43 -5 49 -11 26 -26 103 -6 103 27 0 18 4 18 42 -2 29 -15 87 -15 168 1 14 3
51 10 83 16 32 5 91 22 130 35 92 33 139 42 199 40 26 0 48 2 48 6 0 19 -129
92 -184 105 -42 9 -144 11 -179 3 -20 -4 -37 -4 -37 0 0 13 92 48 145 54 67 9
85 15 108 37 11 10 36 24 56 30 20 6 43 17 51 25 26 22 124 63 158 66 57 4 16
20 -56 22 l-69 1 0 32 c1 26 9 36 51 64 27 17 75 40 105 49 l56 18 -45 8 c-25
4 -47 8 -50 7 -3 0 -36 -4 -75 -7 -38 -4 -97 -14 -130 -22 -266 -69 -370 -68
-488 8 -40 25 -46 38 -19 39 43 2 89 7 114 12 28 6 101 38 96 42 -2 2 -46 6
-98 8 -52 3 -108 8 -125 11 -134 24 -311 103 -383 173 -25 24 -47 43 -49 43
-11 0 -59 52 -79 86 -29 49 -30 73 -6 105 10 13 22 32 25 42 8 21 36 34 46 21
3 -5 20 -15 36 -23 17 -7 38 -17 47 -22 10 -5 38 -6 62 -3 28 4 51 2 59 -4 8
-7 29 -13 48 -14 22 -2 42 -12 57 -30 26 -30 68 -43 113 -33 l31 7 -5 74 c-3
41 -4 74 -3 74 1 0 22 -10 47 -22 48 -24 140 -31 146 -11 2 6 -18 26 -44 44
-26 18 -49 36 -51 41 -2 4 -9 8 -15 8 -12 1 -61 42 -86 74 -12 14 -7 13 23 -5
53 -31 157 -37 241 -14 86 23 100 40 32 39 -83 -1 -171 38 -307 136 -101 72
-156 101 -228 120 -37 10 -96 30 -132 44 -65 27 -170 86 -170 96 0 3 17 6 37
8 48 3 119 25 173 52 40 20 130 103 130 120 0 4 -19 4 -42 0 -49 -9 -201 -11
-241 -3 -19 4 -32 16 -42 39 -7 18 -23 39 -34 46 -15 9 -21 23 -21 48 0 20 -5
41 -12 48 -9 9 -5 12 18 13 79 2 102 13 61 28 -35 13 -144 33 -165 29 -21 -3
-112 30 -112 42 0 4 7 13 15 20 8 7 14 22 14 34 -1 11 5 39 13 61 20 56 12
125 -14 125 -6 0 -28 18 -49 41 -34 37 -40 40 -72 34 -48 -9 -73 0 -96 39 -27
43 -29 85 -6 135 l18 41 -30 43 c-17 23 -38 68 -47 100 -16 55 -18 57 -51 57
-23 0 -37 -6 -43 -17z"/>
</g>
</svg>
