<svg xmlns="http://www.w3.org/2000/svg" width="34.299" height="39.814" viewBox="0 0 34.299 39.814">
  <g id="Logo__svg" transform="translate(-4.966 -31.797)">
    <g id="g22" transform="translate(4.966 31.797)">
      <path id="path24" d="M409.088-495.453l-1.462-.752a6.7,6.7,0,0,0,2.843-.24c-1.634-.457-3.539-1.268-4.4-2.514a11.917,11.917,0,0,0,3.772.874l-.781-1.162a1.379,1.379,0,0,0,.927-.172,3.421,3.421,0,0,1-1.35-.284,7.647,7.647,0,0,0,1.769-1.488,12.123,12.123,0,0,1-5.951.832,4.085,4.085,0,0,0,2.409-1.6,10.339,10.339,0,0,1-3.906,1.092c-2.055.094-1.817-.161-3.691-1.327a3.845,3.845,0,0,0,2.051.41,2.9,2.9,0,0,1-1.405-.926,6.361,6.361,0,0,0,2.741.514l-.978-.383a4.838,4.838,0,0,0,2.475-.334,3.542,3.542,0,0,1-2.477-.931,8.12,8.12,0,0,0,5.348-1.55,4.854,4.854,0,0,1-2.236-.333,3.851,3.851,0,0,0,2.095-1.237,7.112,7.112,0,0,1-.906.294c.281-.214.315-.5.14-.589a.969.969,0,0,0,.386-.453,1.845,1.845,0,0,0-.97.286c-.706.342-3.418-.016-3.418-.016a4.409,4.409,0,0,0,2.023-.794,13.526,13.526,0,0,1-6.117-.2c-.116-.092-.164-.391-.334-.664s-.458-.369-.388-.517.124-.417.209-.446.166-.017.374.254a.576.576,0,0,0,.594.269c.17-.033.12.076.353.138a.385.385,0,0,0,.517-.377c.482.433.8.175,1.078.166a7.508,7.508,0,0,0,1.563-.329,2.658,2.658,0,0,1,1.567-.248,2.564,2.564,0,0,0-2.611-.647,1.389,1.389,0,0,1,.907-.408c.337-.023.536-.019.748-.235s.545-.185.747-.386a2.143,2.143,0,0,1,1.208-.4,2.856,2.856,0,0,0-1.155-.1.4.4,0,0,0,.056-.377,2.63,2.63,0,0,1,1.377-.622c-1.089-.332-2.066.207-3.342.375a2.165,2.165,0,0,1-1.921-.606s1.189.058,1.516-.375a5.591,5.591,0,0,1-3.79-1.1c-.294-.433-.527-.346-.779-.787s-.232-.517,0-.793a1,1,0,0,0,.193-.4,3.452,3.452,0,0,0,.861.413c.174-.014.391-.143.56-.013a.7.7,0,0,0,.483.1c.143,0,.209.264.34.331s.608.132.711.011-.033-.943-.033-.943c.909.536,1.276.3,1.272.2s-.821-.5-1.39-1.108a2.244,2.244,0,0,0,2.368-.03c-1.413.257-2.656-1.349-3.491-1.527a6.366,6.366,0,0,1-2.191-.944c1.811-.121,2.21-1.157,2.21-1.157a5.008,5.008,0,0,1-1.978.027c-.061-.512-.4-.507-.415-.621s.131-.355-.148-.538a1.636,1.636,0,0,0,.782-.106,3.734,3.734,0,0,0-1.008-.251,1.4,1.4,0,0,1-1.012-.314c.462-.073.206-.436.283-.482a1.074,1.074,0,0,0,.129-.784c-.088-.261-.319-.124-.384-.344a.406.406,0,0,0-.56-.281c-.275.117-.658-.2-.7-.647s.225-.494.2-.708-.37-.372-.418-.714c-.041-.3-.053-.51-.27-.551h0a1.241,1.241,0,0,0-.18,0h0c-.234.041-.237.256-.269.564-.036.343-.379.514-.393.728s.257.25.229.7-.4.778-.679.671a.4.4,0,0,0-.549.3c-.057.221-.293.092-.371.357a1.064,1.064,0,0,0,.157.779c.078.043-.165.414.3.471a1.4,1.4,0,0,1-1,.35,3.709,3.709,0,0,0-1,.286,1.644,1.644,0,0,0,.785.079c-.271.193-.121.428-.129.543s-.35.121-.392.635a5.006,5.006,0,0,1-1.979.043s.436,1.022,2.25,1.079a6.357,6.357,0,0,1-2.157,1.021c-.828.207-2.014,1.857-3.435,1.65a2.244,2.244,0,0,0,2.367-.053c-.546.632-1.349,1.06-1.349,1.157s.375.321,1.264-.246c0,0-.107.825,0,.943s.581.036.71-.036.186-.335.328-.343a.7.7,0,0,0,.478-.121c.164-.136.386-.014.561-.007a3.451,3.451,0,0,0,.846-.443,1,1,0,0,0,.207.392c.242.268.264.343.028.793s-.471.371-.75.814a5.59,5.59,0,0,1-3.749,1.228c.343.421,1.528.322,1.528.322a2.164,2.164,0,0,1-1.9.673c-1.28-.123-2.277-.627-3.353-.257a2.631,2.631,0,0,1,1.4.573.394.394,0,0,0,.07.375,2.853,2.853,0,0,0-1.152.139,2.136,2.136,0,0,1,1.221.354c.209.193.541.15.76.359s.418.2.755.209a1.387,1.387,0,0,1,.921.375,2.567,2.567,0,0,0-2.587.739,2.663,2.663,0,0,1,1.575.193,7.458,7.458,0,0,0,1.575.273c.273,0,.6.247,1.071-.2a.386.386,0,0,0,.531.359c.23-.07.176-.177.348-.15a.575.575,0,0,0,.584-.289c.2-.278.279-.294.364-.267s.15.294.225.439-.209.252-.37.531-.2.578-.311.674a13.517,13.517,0,0,1-6.105.416,4.411,4.411,0,0,0,2.049.721s-2.7.453-3.415.137a1.844,1.844,0,0,0-.98-.252.969.969,0,0,0,.4.44c-.171.091-.129.381.161.584a7.09,7.09,0,0,1-.916-.263,3.845,3.845,0,0,0,2.136,1.162,4.856,4.856,0,0,1-2.222.412,8.125,8.125,0,0,0,5.4,1.361,3.537,3.537,0,0,1-2.442,1.018,4.84,4.84,0,0,0,2.485.246l-.964.418a6.355,6.355,0,0,0,2.721-.61,2.9,2.9,0,0,1-1.371.975,3.839,3.839,0,0,0,2.035-.482c-1.832,1.231-1.585,1.478-3.642,1.457a10.334,10.334,0,0,1-3.942-.954,4.086,4.086,0,0,0,2.464,1.511,12.12,12.12,0,0,1-5.977-.622,7.635,7.635,0,0,0,1.821,1.425,3.423,3.423,0,0,1-1.339.332,1.374,1.374,0,0,0,.932.139l-.739,1.189a11.924,11.924,0,0,0,3.739-1.007c-.814,1.275-2.689,2.153-4.306,2.667a6.694,6.694,0,0,0,2.849.139l-1.435.8a8.642,8.642,0,0,0,3.171-.91c1.735-.857,2.646-1.628,3.7-1.864a5.185,5.185,0,0,1-2.924,2.485.531.531,0,0,0,.23.418,4.168,4.168,0,0,1-.953.434,4.383,4.383,0,0,0,2.208-.42c.514-.178,1.585-.607,1.585-.607a8.525,8.525,0,0,1-1.24,1.267c-.61.467-1.307.964-1.307.964a1.311,1.311,0,0,1,.664,0,6.878,6.878,0,0,0,1.088.128,9.553,9.553,0,0,1-3.332.745,4.7,4.7,0,0,0-1.714.017.993.993,0,0,0,.658.353.929.929,0,0,1,.718.214c.122.134.107.267.354.445a3.8,3.8,0,0,0,2.362.284c-.846.209-1.575.161-2.169.386.424.07.568.3,1.259.2a11.883,11.883,0,0,0,4.422-1.359,3.446,3.446,0,0,1-2.021,1.278,5.961,5.961,0,0,0-1.586.714,6.2,6.2,0,0,1,1.285-.064,11.236,11.236,0,0,0,4.056-1.093,5.1,5.1,0,0,1-.907.779,15.626,15.626,0,0,0,2.357-.95,15.786,15.786,0,0,1-1.236,1.4,16.356,16.356,0,0,1,1.893-1.071c.7-.293,1.292-.472,1.292-.472l.036,2.3s-4.9.268-5.624.321-.911.161-.911.311c0,.13,6.1.034,7.7.007h0l1.505-.018v-.008c1.723-.032,7.612-.149,7.607-.277-.006-.15-.191-.25-.921-.278s-5.631-.122-5.631-.122l-.046-2.3s.6.158,1.309.425a16.407,16.407,0,0,1,1.929,1,15.739,15.739,0,0,1-1.284-1.355,15.565,15.565,0,0,0,2.389.866,5.131,5.131,0,0,1-.934-.745,11.245,11.245,0,0,0,4.092.948,6.22,6.22,0,0,1,1.287.019,5.962,5.962,0,0,0-1.61-.658,3.445,3.445,0,0,1-2.065-1.206,11.885,11.885,0,0,0,4.467,1.2c.694.077.831-.158,1.251-.243-.6-.2-1.329-.129-2.182-.308a3.808,3.808,0,0,0,2.351-.367c.24-.185.219-.318.337-.457a.929.929,0,0,1,.71-.24,1,1,0,0,0,.645-.375,4.7,4.7,0,0,0-1.714.043,9.554,9.554,0,0,1-3.355-.626,6.852,6.852,0,0,0,1.081-.167,1.315,1.315,0,0,1,.664-.023s-.714-.473-1.34-.917a8.491,8.491,0,0,1-1.283-1.223s1.086.391,1.606.551a4.385,4.385,0,0,0,2.222.342,4.145,4.145,0,0,1-.968-.4.527.527,0,0,0,.215-.426,5.186,5.186,0,0,1-3.01-2.38c1.057.2,1.995.937,3.759,1.732a8.64,8.64,0,0,0,3.2.8" transform="translate(-376.169 528.015)" fill="#fff"/>
    </g>
  </g>
</svg>
