<svg xmlns="http://www.w3.org/2000/svg" width="43.004" height="33.364" viewBox="0 0 43.004 33.364">
  <g id="Search__svg" transform="translate(-488 -205)">
    <g id="Контур_1" data-name="Контур 1" transform="translate(488 205)" fill="none">
      <path d="M16.194,0A16.194,16.194,0,1,1,0,16.194,16.194,16.194,0,0,1,16.194,0Z" stroke="none"/>
      <path d="M 16.19444274902344 2.000001907348633 C 12.40297317504883 2.000001907348633 8.838432312011719 3.476482391357422 6.157463073730469 6.157463073730469 C 3.476482391357422 8.838432312011719 2.000001907348633 12.40297317504883 2.000001907348633 16.19444274902344 C 2.000001907348633 19.98591232299805 3.476482391357422 23.55045318603516 6.157463073730469 26.23142242431641 C 8.838432312011719 28.91240310668945 12.40297317504883 30.38888168334961 16.19444274902344 30.38888168334961 C 19.98591232299805 30.38888168334961 23.55045318603516 28.91240310668945 26.23142242431641 26.23142242431641 C 28.91240310668945 23.55045318603516 30.38888168334961 19.98591232299805 30.38888168334961 16.19444274902344 C 30.38888168334961 12.40297317504883 28.91240310668945 8.838432312011719 26.23142242431641 6.157463073730469 C 23.55045318603516 3.476482391357422 19.98591232299805 2.000001907348633 16.19444274902344 2.000001907348633 M 16.19444274902344 3.814697265625e-06 C 25.13838195800781 3.814697265625e-06 32.38888168334961 7.250503540039063 32.38888168334961 16.19444274902344 C 32.38888168334961 25.13838195800781 25.13838195800781 32.38888168334961 16.19444274902344 32.38888168334961 C 7.250503540039063 32.38888168334961 3.814697265625e-06 25.13838195800781 3.814697265625e-06 16.19444274902344 C 3.814697265625e-06 7.250503540039063 7.250503540039063 3.814697265625e-06 16.19444274902344 3.814697265625e-06 Z" stroke="none" fill="#fff"/>
    </g>
    <line id="Линия_1" data-name="Линия 1" x2="14.107" y2="8.222" transform="translate(516.393 229.278)" fill="none" stroke="#fff" stroke-width="2"/>
  </g>
</svg>
